states
version=1
nRows=12
nColumns=39
inDegrees=yes
endheader
time	/hamstrings_r/activation	/bifemsh_r/activation	/glut_max_r/activation	/iliopsoas_r/activation	/rect_fem_r/activation	/vasti_r/activation	/gastroc_r/activation	/soleus_r/activation	/tib_ant_r/activation	/hamstrings_l/activation	/bifemsh_l/activation	/glut_max_l/activation	/iliopsoas_l/activation	/rect_fem_l/activation	/vasti_l/activation	/gastroc_l/activation	/soleus_l/activation	/tib_ant_l/activation	/jointset/groundPelvis/pelvis_tilt/value	/jointset/groundPelvis/pelvis_tilt/speed	/jointset/groundPelvis/pelvis_tx/value	/jointset/groundPelvis/pelvis_tx/speed	/jointset/groundPelvis/pelvis_ty/value	/jointset/groundPelvis/pelvis_ty/speed	/jointset/hip_l/hip_flexion_l/value	/jointset/hip_l/hip_flexion_l/speed	/jointset/hip_r/hip_flexion_r/value	/jointset/hip_r/hip_flexion_r/speed	/jointset/knee_l/knee_angle_l/value	/jointset/knee_l/knee_angle_l/speed	/jointset/knee_r/knee_angle_r/value	/jointset/knee_r/knee_angle_r/speed	/jointset/ankle_l/ankle_angle_l/value	/jointset/ankle_l/ankle_angle_l/speed	/jointset/ankle_r/ankle_angle_r/value	/jointset/ankle_r/ankle_angle_r/speed	/jointset/lumbar/lumbar/value	/jointset/lumbar/lumbar/speed
      1.08000000	      0.01000000	      0.01000000	      0.01000000	      0.01000000	      0.01000000	      0.01000000	      0.01000000	      0.01000000	      0.01000000	      0.01000000	      0.01000000	      0.01000000	      0.01000000	      0.01000000	      0.01000000	      0.01000000	      0.01000000	      0.01000000	      2.73608065	    -15.17198461	      0.29743617	      0.38669511	      0.82785399	      0.82959910	     37.64098543	   -125.47425979	     37.62775639	   -133.02008842	    -65.20137313	    209.07935369	    -64.26228391	    219.32522406	     25.94863373	    -61.37391316	     27.43195406	    -57.03489162	    -39.05342621	     75.09183163
      1.09000000	      0.01000000	      0.01000000	      0.01000000	      0.01000000	      0.01000000	      0.01000000	      0.01000000	      0.01000000	      0.01000000	      0.01000000	      0.01000000	      0.01000000	      0.01000000	      0.01000000	      0.01000000	      0.01000000	      0.01000000	      0.01000000	      2.32813087	    -17.92992674	      0.30123966	      0.38227272	      0.83561493	      0.81012153	     36.68367899	   -122.75842124	     36.61325506	   -128.66409453	    -63.12953047	    212.33129368	    -62.09079180	    221.42098866	     25.27701604	    -70.90585697	     26.78748217	    -67.59076828	    -37.87888627	     86.02508193
      1.10000000	      0.01000000	      0.01000000	      0.01000000	      0.01000000	      0.01000000	      0.01000000	      0.01000000	      0.01000000	      0.01000000	      0.01000000	      0.01000000	      0.01000000	      0.01000000	      0.01000000	      0.01000000	      0.01000000	      0.01000000	      0.01000000	      2.53322490	     21.55196890	      0.30511541	      0.38713291	      0.84434302	      0.86771803	     35.00807012	   -168.38309900	     34.85733652	   -177.52994841	    -60.94184411	    219.32147787	    -59.80366637	    231.25302782	     24.54876875	    -75.67794425	     26.09970470	    -72.90483001	    -37.59432401	     26.52873757
      1.11000000	      0.01000000	      0.01000000	      0.01000000	      0.01000000	      0.01000000	      0.01000000	      0.01000000	      0.01000000	      0.01000000	      0.01000000	      0.01000000	      0.01000000	      0.01000000	      0.01000000	      0.01000000	      0.01000000	      0.01000000	      0.01000000	      2.52499335	     -1.88654589	      0.30896044	      0.38611171	      0.85250286	      0.80005169	     33.57803519	   -143.43534999	     33.35672037	   -147.55203326	    -58.76005440	    221.42668113	    -57.51850694	    227.17961633	     23.79535176	    -71.69983144	     25.35999117	    -69.91526178	    -37.00955771	     57.99935947
      1.12000000	      0.01000000	      0.01000000	      0.01000000	      0.01000000	      0.01000000	      0.01000000	      0.01000000	      0.01000000	      0.01000000	      0.01000000	      0.01000000	      0.01000000	      0.01000000	      0.01000000	      0.01000000	      0.01000000	      0.01000000	      0.01000000	      2.50247533	    -24.51993455	      0.31282018	      0.38044267	      0.86038256	      0.74044245	     32.14788494	   -114.97239525	     31.88671157	   -121.57986884	    -56.53949655	    216.31440140	    -55.23350549	    230.17267690	     23.08829680	    -74.62373567	     24.66652751	    -76.25782282	    -36.41049206	     97.48589951
      1.13000000	      0.01000000	      0.01000000	      0.01000000	      0.01000000	      0.01000000	      0.01000000	      0.01000000	      0.01000000	      0.01000000	      0.01000000	      0.01000000	      0.01000000	      0.01000000	      0.01000000	      0.01000000	      0.01000000	      0.01000000	      0.01000000	      2.19625642	     -0.07601264	      0.31661016	      0.38648932	      0.86760047	      0.76476455	     31.08828554	   -141.88825010	     30.72245695	   -154.57026135	    -54.41175546	    217.60021394	    -52.88250804	    242.60231718	     22.30754802	    -76.15536195	     23.83301755	    -82.89123321	    -35.31321622	     63.63139896
      1.14000000	      0.01000000	      0.01000000	      0.01000000	      0.01000000	      0.01000000	      0.01000000	      0.01000000	      0.01000000	      0.01000000	      0.01000000	      0.01000000	      0.01000000	      0.01000000	      0.01000000	      0.01000000	      0.01000000	      0.01000000	      0.01000000	      2.63874160	     56.86393378	      0.32059031	      0.40207389	      0.87588430	      0.83654785	     29.13430208	   -210.65746958	     28.63788656	   -224.06111371	    -52.14300681	    230.14212028	    -50.38290546	    253.39500441	     21.59641011	    -70.11849800	     23.05741052	    -77.12519372	    -35.35623816	    -22.24746125
      1.15000000	      0.01000000	      0.01000000	      0.01000000	      0.01000000	      0.01000000	      0.01000000	      0.01000000	      0.01000000	      0.01000000	      0.01000000	      0.01000000	      0.01000000	      0.01000000	      0.01000000	      0.01000000	      0.01000000	      0.01000000	      0.01000000	      2.75747343	    -36.46920983	      0.32448980	      0.37549251	      0.88333270	      0.64735994	     27.56716196	    -98.91457636	     26.96249740	   -105.38169224	    -49.91101618	    216.05744757	    -47.93628331	    232.41969710	     20.81888955	    -86.41275651	     22.20864005	    -92.56541786	    -34.88474858	    119.80297478
      1.16000000	      0.01000000	      0.01000000	      0.01000000	      0.01000000	      0.01000000	      0.01000000	      0.01000000	      0.01000000	      0.01000000	      0.01000000	      0.01000000	      0.01000000	      0.01000000	      0.01000000	      0.01000000	      0.01000000	      0.01000000	      0.01000000	      2.49340678	     23.22686346	      0.32826692	      0.39272312	      0.88984133	      0.72269757	     26.46358839	   -168.52731785	     25.78565549	   -181.96162472	    -47.73745395	    223.92415837	    -45.58354980	    251.28615887	     19.95844636	    -79.00187313	     21.27151060	    -91.00240035	    -33.83001602	     34.12902778
      1.17000000	      0.01000000	      0.01000000	      0.01000000	      0.01000000	      0.01000000	      0.01000000	      0.01000000	      0.01000000	      0.01000000	      0.01000000	      0.01000000	      0.01000000	      0.01000000	      0.01000000	      0.01000000	      0.01000000	      0.01000000	      0.01000000	      3.11397357	     56.86760725	      0.33231967	      0.40408798	      0.89759520	      0.75161334	     24.32080258	   -208.25517802	     23.46228940	   -224.88597734	    -45.44173797	    229.65805361	    -42.94512392	    261.45777636	     19.22371907	    -75.20626644	     20.38474541	    -90.10943536	    -34.04285864	    -13.25899259
      1.18000000	      0.01000000	      0.01000000	      0.01000000	      0.01000000	      0.01000000	      0.01000000	      0.01000000	      0.01000000	      0.01000000	      0.01000000	      0.01000000	      0.01000000	      0.01000000	      0.01000000	      0.01000000	      0.01000000	      0.01000000	      0.01000000	      3.33451274	     10.19101575	      0.33625161	      0.38910766	      0.90435421	      0.63956218	     22.65617783	   -150.98496731	     21.67108633	   -163.95236121	    -43.19953912	    220.38530405	    -40.43874259	    248.78257052	     18.40710409	    -84.16871506	     19.43201126	    -99.34303631	    -33.65897073	     57.67150727
      1.19000000	      0.01000000	      0.01000000	      0.01000000	      0.01000000	      0.01000000	      0.01000000	      0.01000000	      0.01000000	      0.01000000	      0.01000000	      0.01000000	      0.01000000	      0.01000000	      0.01000000	      0.01000000	      0.01000000	      0.01000000	      0.01000000	      3.57919214	     30.73142685	      0.34017309	      0.39219548	      0.91083351	      0.64221142	     20.99374781	   -172.68412132	     19.84539913	   -189.77512052	    -40.99910832	    219.99305433	    -37.89170861	    255.90349836	     17.58329105	    -82.04898351	     18.42076785	   -102.66327674	    -33.27143473	     30.36000712
